ModelForces
version=1
nRows=5
nColumns=94
inDegrees=yes

This file contains the forces exerted on a model during a simulation.

A force is a generalized force, meaning that it can be either a force (N) or a torque (Nm).

Units are S.I. units (second, meters, Newtons, ...)
Angles are in degrees.

endheader 
time	addbrev_l	addlong_l	addmagDist_l	addmagIsch_l	addmagMid_l	addmagProx_l	bflh_l	bfsh_l	edl_l	ehl_l	fdl_l	fhl_l	gaslat_l	gasmed_l	glmax1_l	glmax2_l	glmax3_l	glmed1_l	glmed2_l	glmed3_l	glmin1_l	glmin2_l	glmin3_l	grac_l	iliacus_l	perbrev_l	perlong_l	piri_l	psoas_l	recfem_l	sart_l	semimem_l	semiten_l	soleus_l	tfl_l	tibant_l	tibpost_l	vasint_l	vaslat_l	vasmed_l	addbrev_r	addlong_r	addmagDist_r	addmagIsch_r	addmagMid_r	addmagProx_r	bflh_r	bfsh_r	edl_r	ehl_r	fdl_r	fhl_r	gaslat_r	gasmed_r	glmax1_r	glmax2_r	glmax3_r	glmed1_r	glmed2_r	glmed3_r	glmin1_r	glmin2_r	glmin3_r	grac_r	iliacus_r	perbrev_r	perlong_r	piri_r	psoas_r	recfem_r	sart_r	semimem_r	semiten_r	soleus_r	tfl_r	tibant_r	tibpost_r	vasint_r	vaslat_r	vasmed_r	lumbar_extension	lumbar_bending	lumbar_rotation	arm_flex_l	arm_add_l	arm_rot_l	arm_flex_r	arm_add_r	arm_rot_r	elbow_flex_l	elbow_flex_r	pro_sup_l	pro_sup_r	
          6.63736842	         58.25249779	        106.53015147	         44.07577374	         12.99646416	         52.91447119	        325.29648746	        257.07363983	        232.13204795	         98.22159414	         49.92336643	         17.09391942	         62.56669377	        188.15994267	         26.28269869	         52.91304955	         92.05974419	        278.84333035	         17.43691548	          6.34700062	         15.80848687	          8.68995130	          5.57561961	          0.00001856	        430.04183364	        143.53907460	          9.28650287	         64.33156695	         35.13955928	        559.44634386	        421.75694113	        125.97470728	        195.35065649	         98.89502827	          1.89249124	         11.03866163	        115.29873176	        268.70150809	         32.69043416	        168.83964569	         60.52301751	         58.35142166	         17.36455737	        664.76804859	        285.26069940	        246.66745934	         71.80464001	         17.34959542	        135.37492362	        128.43122667	         77.87797308	         -0.00001096	         16.23626861	         64.50940249	        108.02775595	         14.93398595	         23.53539478	         15.34932792	         96.53358581	         15.95643934	         53.70909516	        248.93877968	        117.41502822	         69.68632132	         61.60326511	        213.22806121	         72.19143318	         59.43309432	         11.93289122	        285.33906979	       1860.76741299	         83.57062779	         11.99843426	          6.75037959	        187.65831603	          0.00017298	        250.79508666	         -0.00007764	         22.84767067	         33.09188528	         34.39630339	        -92.48026980	         76.00304811	         10.17153624	        -29.42948313	          9.42044764	         23.05907873	        -19.12779694	         35.98618401	          6.51736191	          3.53613225	         23.24107156	          0.39597692	          1.14954655	
          6.65763158	         34.45142454	       1143.57514263	         34.99157583	         12.16736120	         41.97734314	        757.92714712	        211.98787741	        150.80524874	         87.02104113	         45.46213472	         52.26309551	          0.00014738	        169.02299585	          7.81555042	         30.05079796	         62.43430266	        870.76727198	          6.30888133	          1.44348979	          5.60282225	          4.13285971	          1.87509009	         -0.00002169	        397.23591707	         82.82588921	          5.45957332	         35.30775109	         84.61892938	       1121.65814807	        549.66768410	        252.76325955	        168.77433098	         72.02350990	         -0.00015409	          2.26921268	        200.08133090	        424.29830681	         16.97355977	         90.42548730	         32.80801316	         42.55957204	         17.69292630	        772.57626931	        206.52994275	        441.09124749	         34.25493819	         10.42223305	        108.63980272	         49.93467836	         20.25117987	         97.10601076	          4.24819691	          0.00002824	         76.42356826	         16.24328018	         25.41158069	         16.52369507	         59.66923847	         13.32835949	         32.98903406	        154.76957627	         72.54933790	         39.58377729	         73.26618074	        118.88885932	        138.03277515	         -0.00002978	        631.30145506	        181.75910020	       1308.63247473	         45.58345733	         30.65475470	          9.48341353	        102.77768752	        141.69195164	         20.07071984	        313.92111070	        159.14896957	       1534.66694383	        211.74617164	        -77.86625689	        174.45177898	         58.29126725	        -65.98865570	        -10.28886504	         33.90785196	         56.05402652	         39.18835547	         -2.73910649	        -10.83362787	         29.23626637	          0.80566331	         -0.05312028	
          6.67789474	        773.85014919	       1142.79264326	         16.46101500	          9.78336351	        468.20533835	        789.79689087	        162.70827090	         97.21284186	         72.41550346	         15.35880682	         35.23015113	        179.70344357	          1.19917795	          2.91091408	         20.04506233	         45.65445144	        742.11310273	          5.62673579	          0.92534781	          3.43967797	          3.12942660	          1.03923404	          1.38845079	        305.96238638	         14.25746825	          4.32733858	         22.03521831	          0.97022658	        952.27589777	        108.75242199	        150.33673701	        133.24309562	         47.15575980	          0.03517442	         -0.00001903	        177.62840436	        378.82843076	         49.74312803	        144.16570672	         77.36670642	         48.16363084	          7.55760340	        582.94817214	        124.44845692	        427.46874313	         19.20571634	        437.89229235	        104.50197205	         91.21469389	         48.00048777	         21.77473002	         83.06454826	        401.29444438	         69.06354697	         16.78557638	         24.89602666	        109.74992052	         32.14733371	         10.36357746	         18.13844897	         81.91042865	         39.59414932	         17.12547884	         96.53039175	         58.84033245	         31.67972946	        187.68868913	        656.19052200	        110.75074441	        348.75058837	        107.38235441	         49.22120801	         11.62830125	         40.73022482	         14.87419060	        264.44242617	         72.02762558	        160.08405280	       2120.01421314	        332.57760629	         23.94948955	        229.63138528	         97.80646459	        -94.87557907	        -35.64823242	         38.01819273	         96.03309725	         -4.65855135	        -16.92897689	        -25.59090521	         28.50141611	          1.53420567	         -1.23773274	
          6.69815789	        559.41481329	        733.27372333	        772.10316661	          0.00034694	        821.73899949	        737.57932666	        109.64084833	         20.98650400	          2.51917576	         73.45723661	         13.32087026	         63.14277155	        270.53197127	          0.00026035	         15.51867108	         34.44313002	        483.47557574	          6.70458557	          2.15484268	          4.53420150	          3.63968487	          1.81303305	         -0.00002219	        217.81942267	        723.21813351	          4.47291302	         15.49745742	         -0.00005117	        843.22997651	        118.95768979	        100.22266126	         92.50357475	         27.62468452	         18.29055137	          1.28024874	        404.40796413	        257.83275976	         36.85571604	        111.13177038	         57.28773807	         84.59635736	         11.23995962	        382.85300286	         57.41864073	        342.63825429	         22.81945893	       1078.49073833	         93.80053319	        103.69970410	         65.38963435	         41.98655959	         44.61827554	        172.70390396	        163.21059760	         15.13561725	         20.97819485	         61.73670978	         14.43395004	          7.24296849	          9.13976010	         37.71278384	         18.68201044	          6.90669356	         78.53067300	         39.13647357	        119.94285299	         99.42573613	        180.15682516	         82.83645494	         -0.00008305	         77.80153151	          8.85307333	         11.59396538	          0.01031348	          0.23033981	        188.19570944	        149.64611170	         81.93252967	        829.89720397	        175.51781711	         59.04790190	        260.55904371	        114.13857972	       -107.47027280	        -60.46651429	         33.85507781	        120.17656443	        -54.70318432	        -35.32656878	        -38.68167817	         22.82400575	          1.81977245	         -2.11531384	
          6.71842105	        426.26832477	        509.90505889	        690.61612049	        694.42391565	        710.57824781	        648.04750217	         65.09348493	        441.77325605	        178.52962538	         74.19220099	         38.11218907	         82.46579616	        322.24325321	        450.70650849	         11.72622788	         24.56958565	        294.52066923	          7.00885691	          2.93198533	          5.04854581	          4.09628453	          2.42493039	          1.09022314	        161.90688666	        720.35641753	          4.12196620	          9.98556710	          1.58696872	        787.21354751	         83.69139681	         69.43688015	         56.72318596	          7.06292113	         42.98091933	          2.49418083	        743.60567993	        249.50075523	         27.69512011	         87.07064859	         43.26112791	         78.12721786	         17.82930161	        211.69261230	         23.52607834	        241.52176449	         27.92458951	        531.84023361	         68.77055246	        106.64334925	         87.44823274	         21.84645889	         20.15523090	        172.22534647	        305.47709231	          3.86191632	          4.17403347	        194.63040712	          6.75758827	          0.91832308	          2.74069376	         23.85127014	         10.04871242	          0.82505538	         55.12978915	         40.76953440	         99.86364016	        237.71913628	        291.05144814	         84.55831214	          7.16515179	         63.36615592	       1142.57312444	         19.05959154	          3.25374865	          0.17548256	        400.20599010	         62.18659906	         39.82506138	       1138.86344700	         88.95859242	         79.19572936	        277.89370995	        105.79281252	        -95.77582198	        -73.04725454	         18.58438227	        132.97038948	        -38.70677669	        -19.14558597	        -42.46677456	         32.06286455	          1.31612558	         -1.41836252	
